<svg width="51" height="51" viewBox="0 0 51 51" fill="none" xmlns="http://www.w3.org/2000/svg">
<path d="M8.05132 16.7756L7.7159 17.4464L7.71591 17.4464L8.05132 16.7756ZM23.5993 24.5496L23.9348 23.8788L23.5993 24.5496ZM42.9487 16.7756L43.2841 17.4464L43.2841 17.4464L42.9487 16.7756ZM42.9487 12.9743L43.2841 12.3035L43.2841 12.3035L42.9487 12.9743ZM27.4007 5.20027L27.0652 5.87109L27.4007 5.20027ZM23.5993 5.20027L23.2639 4.52945L23.2639 4.52945L23.5993 5.20027ZM8.05132 12.9743L7.71591 12.3035L7.71591 12.3035L8.05132 12.9743ZM27.2261 45.9828L26.9215 45.2974L26.9215 45.2974L27.2261 45.9828ZM44.9296 38.9353C45.3081 38.7671 45.4786 38.3239 45.3104 37.9453C45.1421 37.5668 44.6989 37.3964 44.3204 37.5646L44.9296 38.9353ZM6.6796 37.5646C6.30109 37.3964 5.85787 37.5668 5.68964 37.9453C5.52141 38.3239 5.69188 38.7671 6.0704 38.9353L6.6796 37.5646ZM23.7739 45.9828L24.0785 45.2974L24.0785 45.2974L23.7739 45.9828ZM27.2261 35.3578L26.9215 34.6724L26.9215 34.6724L27.2261 35.3578ZM44.9296 28.3103C45.3081 28.1421 45.4786 27.6989 45.3104 27.3203C45.1421 26.9418 44.6989 26.7714 44.3204 26.9396L44.9296 28.3103ZM6.6796 26.9396C6.30109 26.7714 5.85787 26.9418 5.68964 27.3203C5.52141 27.6989 5.69188 28.1421 6.0704 28.3103L6.6796 26.9396ZM23.7739 35.3578L24.0785 34.6724L24.0785 34.6724L23.7739 35.3578ZM7.71591 17.4464L23.2639 25.2204L23.9348 23.8788L8.38673 16.1048L7.71591 17.4464ZM27.7361 25.2204L43.2841 17.4464L42.6133 16.1048L27.0652 23.8788L27.7361 25.2204ZM43.2841 12.3035L27.7361 4.52945L27.0652 5.87109L42.6133 13.6451L43.2841 12.3035ZM23.2639 4.52945L7.71591 12.3035L8.38673 13.6451L23.9348 5.87109L23.2639 4.52945ZM27.7361 4.52945C26.3284 3.82563 24.6716 3.82563 23.2639 4.52945L23.9348 5.87109C24.9201 5.37842 26.0799 5.37842 27.0652 5.87109L27.7361 4.52945ZM43.2841 17.4464C45.4031 16.3869 45.4031 13.363 43.2841 12.3035L42.6133 13.6451C43.6267 14.1518 43.6267 15.5981 42.6133 16.1048L43.2841 17.4464ZM23.2639 25.2204C24.6716 25.9243 26.3284 25.9243 27.7361 25.2204L27.0652 23.8788C26.0799 24.3715 24.9201 24.3715 23.9348 23.8788L23.2639 25.2204ZM8.38673 16.1048C7.37329 15.5981 7.37329 14.1518 8.38673 13.6451L7.71591 12.3035C5.5969 13.363 5.59689 16.3869 7.7159 17.4464L8.38673 16.1048ZM27.5307 46.6682L44.9296 38.9353L44.3204 37.5646L26.9215 45.2974L27.5307 46.6682ZM6.0704 38.9353L23.4693 46.6682L24.0785 45.2974L6.6796 37.5646L6.0704 38.9353ZM26.9215 45.2974C26.0165 45.6997 24.9835 45.6997 24.0785 45.2974L23.4693 46.6682C24.7621 47.2427 26.2379 47.2427 27.5307 46.6682L26.9215 45.2974ZM27.5307 36.0432L44.9296 28.3103L44.3204 26.9396L26.9215 34.6724L27.5307 36.0432ZM6.0704 28.3103L23.4693 36.0432L24.0785 34.6724L6.6796 26.9396L6.0704 28.3103ZM26.9215 34.6724C26.0165 35.0746 24.9835 35.0746 24.0785 34.6724L23.4693 36.0432C24.7621 36.6177 26.2379 36.6177 27.5307 36.0432L26.9215 34.6724Z" fill="white"/>
</svg>
