<svg width="57" height="57" viewBox="0 0 57 57" fill="none" xmlns="http://www.w3.org/2000/svg">
<path d="M14.25 7.875H42.75V6.375H14.25V7.875ZM51.5 16.625V40.375H53V16.625H51.5ZM42.75 49.125H14.25V50.625H42.75V49.125ZM5.5 40.375V16.625H4V40.375H5.5ZM14.25 49.125C9.41751 49.125 5.5 45.2075 5.5 40.375H4C4 46.0359 8.58908 50.625 14.25 50.625V49.125ZM51.5 40.375C51.5 45.2075 47.5825 49.125 42.75 49.125V50.625C48.4109 50.625 53 46.0359 53 40.375H51.5ZM42.75 7.875C47.5825 7.875 51.5 11.7925 51.5 16.625H53C53 10.9641 48.4109 6.375 42.75 6.375V7.875ZM14.25 6.375C8.58908 6.375 4 10.9641 4 16.625H5.5C5.5 11.7925 9.41751 7.875 14.25 7.875V6.375Z" fill="white"/>
<path d="M4.75 16.625V15.875C4.33579 15.875 4 16.2108 4 16.625H4.75ZM52.25 16.625H53C53 16.2108 52.6642 15.875 52.25 15.875V16.625ZM52.25 26.125V26.875C52.6642 26.875 53 26.5392 53 26.125H52.25ZM4.75 26.125H4C4 26.5392 4.33579 26.875 4.75 26.875V26.125ZM4.75 17.375H52.25V15.875H4.75V17.375ZM51.5 16.625V26.125H53V16.625H51.5ZM52.25 25.375H4.75V26.875H52.25V25.375ZM5.5 26.125V16.625H4V26.125H5.5Z" fill="white"/>
<path d="M19 41.125C19.4142 41.125 19.75 40.7892 19.75 40.375C19.75 39.9608 19.4142 39.625 19 39.625V41.125ZM14.25 39.625C13.8358 39.625 13.5 39.9608 13.5 40.375C13.5 40.7892 13.8358 41.125 14.25 41.125V39.625ZM19 39.625H14.25V41.125H19V39.625Z" fill="white"/>
</svg>
