<svg width="24" height="24" viewBox="0 0 24 24" fill="none" xmlns="http://www.w3.org/2000/svg">
<path d="M8.75234 20.25C8.33813 20.25 8.00234 20.5858 8.00234 21C8.00234 21.4142 8.33813 21.75 8.75234 21.75V20.25ZM19 21.75C19.4142 21.75 19.75 21.4142 19.75 21C19.75 20.5858 19.4142 20.25 19 20.25V21.75ZM5.31963 17.9881L5.21356 17.2456H5.21356L5.31963 17.9881ZM4.01193 16.6804L3.26946 16.5743L4.01193 16.6804ZM5.15616 11.94L4.62583 11.4096L5.15616 11.94ZM4.50231 13.2477L5.24478 13.3537L4.50231 13.2477ZM10.06 16.8438L10.5904 17.3742L10.06 16.8438ZM8.75234 17.4977L8.8584 18.2401H8.85841L8.75234 17.4977ZM18.3229 5.31171L17.7926 5.84204L17.7926 5.84204L18.3229 5.31171ZM18.3229 8.58096L17.7926 8.05063L18.3229 8.58096ZM16.6883 3.67708L17.2186 3.14675L17.2186 3.14675L16.6883 3.67708ZM13.419 3.67708L13.9494 4.20741L13.419 3.67708ZM12.5344 5.31171C12.5344 4.8975 12.1986 4.56171 11.7844 4.56171C11.3702 4.56171 11.0344 4.8975 11.0344 5.31171H12.5344ZM16.6883 10.9656C17.1025 10.9656 17.4383 10.6298 17.4383 10.2156C17.4383 9.80137 17.1025 9.46559 16.6883 9.46559V10.9656ZM8.75234 21.75H19V20.25H8.75234V21.75ZM16.158 4.20741L17.7926 5.84204L18.8532 4.78138L17.2186 3.14675L16.158 4.20741ZM17.7926 8.05063L9.52971 16.3135L10.5904 17.3742L18.8532 9.11129L17.7926 8.05063ZM5.68649 12.4703L13.9494 4.20741L12.8887 3.14675L4.62583 11.4096L5.68649 12.4703ZM8.64627 16.7552L5.21356 17.2456L5.42569 18.7305L8.8584 18.2401L8.64627 16.7552ZM4.75439 16.7864L5.24478 13.3537L3.75985 13.1416L3.26946 16.5743L4.75439 16.7864ZM5.21356 17.2456C4.94571 17.2839 4.71612 17.0543 4.75439 16.7864L3.26946 16.5743C3.08978 17.8321 4.16789 18.9102 5.42569 18.7305L5.21356 17.2456ZM4.62583 11.4096C4.1574 11.8781 3.85354 12.4858 3.75985 13.1416L5.24478 13.3537C5.29256 13.0192 5.44756 12.7092 5.68649 12.4703L4.62583 11.4096ZM9.52971 16.3135C9.29077 16.5524 8.98078 16.7074 8.64627 16.7552L8.85841 18.2401C9.51421 18.1465 10.1219 17.8426 10.5904 17.3742L9.52971 16.3135ZM17.7926 5.84204C18.4025 6.45192 18.4025 7.44074 17.7926 8.05063L18.8532 9.11129C20.0489 7.91562 20.0489 5.97705 18.8532 4.78138L17.7926 5.84204ZM17.2186 3.14675C16.0229 1.95108 14.0844 1.95108 12.8887 3.14675L13.9494 4.20741C14.5593 3.59753 15.5481 3.59753 16.158 4.20741L17.2186 3.14675ZM11.7844 5.31171C11.0344 5.31171 11.0344 5.31209 11.0344 5.31246C11.0344 5.3126 11.0344 5.31299 11.0344 5.31326C11.0344 5.3138 11.0344 5.31436 11.0344 5.31495C11.0344 5.31614 11.0344 5.31742 11.0344 5.31881C11.0345 5.32158 11.0345 5.32477 11.0346 5.32836C11.0347 5.33553 11.0349 5.34431 11.0352 5.35465C11.0359 5.37533 11.0371 5.40226 11.0393 5.43503C11.0436 5.50055 11.0519 5.58957 11.0675 5.69873C11.0987 5.91692 11.1593 6.21669 11.2772 6.57052C11.514 7.28079 11.9798 8.20236 12.8887 9.11129L13.9494 8.05063C13.2237 7.32494 12.8722 6.61189 12.7003 6.09618C12.6139 5.83703 12.5723 5.62598 12.5524 5.4866C12.5425 5.41697 12.538 5.36552 12.5359 5.33525C12.5349 5.32013 12.5346 5.31035 12.5344 5.30629C12.5344 5.30426 12.5344 5.30366 12.5344 5.30455C12.5344 5.30499 12.5344 5.30581 12.5344 5.307C12.5344 5.30759 12.5344 5.30828 12.5344 5.30907C12.5344 5.30946 12.5344 5.30988 12.5344 5.31032C12.5344 5.31054 12.5344 5.31089 12.5344 5.311C12.5344 5.31135 12.5344 5.31171 11.7844 5.31171ZM12.8887 9.11129C13.7976 10.0202 14.7192 10.486 15.4295 10.7228C15.7833 10.8407 16.0831 10.9013 16.3013 10.9325C16.4104 10.9481 16.4995 10.9564 16.565 10.9607C16.5977 10.9629 16.6247 10.9641 16.6453 10.9648C16.6557 10.9651 16.6645 10.9653 16.6716 10.9654C16.6752 10.9655 16.6784 10.9655 16.6812 10.9656C16.6826 10.9656 16.6839 10.9656 16.685 10.9656C16.6856 10.9656 16.6862 10.9656 16.6867 10.9656C16.687 10.9656 16.6874 10.9656 16.6875 10.9656C16.6879 10.9656 16.6883 10.9656 16.6883 10.2156C16.6883 9.46559 16.6886 9.46559 16.689 9.46559C16.6891 9.46559 16.6895 9.46559 16.6897 9.46559C16.6901 9.46559 16.6905 9.46559 16.6909 9.46559C16.6917 9.4656 16.6924 9.4656 16.693 9.46561C16.6942 9.46561 16.695 9.46563 16.6955 9.46563C16.6963 9.46565 16.6957 9.46564 16.6937 9.46558C16.6896 9.46545 16.6799 9.46507 16.6647 9.46406C16.6345 9.46204 16.583 9.45753 16.5134 9.44759C16.374 9.42767 16.163 9.38613 15.9038 9.29975C15.3881 9.12785 14.6751 8.77632 13.9494 8.05063L12.8887 9.11129Z" fill="black"/>
</svg>
