<svg width="67" height="62" viewBox="0 0 67 62" fill="none" xmlns="http://www.w3.org/2000/svg">
<path fill-rule="evenodd" clip-rule="evenodd" d="M49.5876 52.5259C54.7887 52.5259 59.0069 48.6206 59.0096 43.8021V43.7969V36.8508C55.5746 36.8508 52.7922 34.273 52.7894 31.0906C52.7894 27.9108 55.5718 25.3305 59.0069 25.3305H59.0096V18.3843C59.0152 13.5632 54.8026 9.65279 49.6015 9.64764H49.5848H17.0618C11.8579 9.64764 7.6398 13.5529 7.63703 18.3741V18.3766V25.5543C10.9526 25.4462 13.7323 27.8491 13.8489 30.9208C13.8517 30.9774 13.8545 31.034 13.8545 31.0906C13.8573 34.2678 11.0832 36.8456 7.65369 36.8508H7.63703V43.7969C7.63425 48.6155 11.8524 52.5259 17.0535 52.5259H17.0563H49.5876Z" stroke="white" stroke-width="1.5" stroke-linecap="round" stroke-linejoin="round"/>
<path fill-rule="evenodd" clip-rule="evenodd" d="M34.3538 23.3161L36.0644 26.5242C36.231 26.838 36.5531 27.0567 36.928 27.1082L40.7518 27.6253C41.6987 27.7539 42.0736 28.8293 41.3905 29.4441L38.6247 31.9396C38.3526 32.184 38.2304 32.5364 38.2915 32.8837L38.944 36.4083C39.1051 37.2804 38.1193 37.9441 37.2751 37.5325L33.8568 35.868C33.5208 35.7034 33.1209 35.7034 32.7849 35.868L29.3693 37.5325C28.5223 37.9441 27.5365 37.2804 27.6976 36.4083L28.3502 32.8837C28.414 32.5364 28.2891 32.184 28.0169 31.9396L25.2539 29.4441C24.5708 28.8293 24.9457 27.7539 25.8898 27.6253L29.7136 27.1082C30.0885 27.0567 30.4134 26.838 30.58 26.5242L32.2878 23.3161C32.7099 22.5237 33.9317 22.5237 34.3538 23.3161Z" stroke="white" stroke-width="1.5" stroke-linecap="round" stroke-linejoin="round"/>
</svg>
