<svg width="74" height="68" viewBox="0 0 74 68" fill="none" xmlns="http://www.w3.org/2000/svg">
<path d="M52.9104 23.0603L52.1837 23.2458L52.9104 23.0603ZM29.7795 9.21484H33.1635V7.71484H29.7795V9.21484ZM6.84125 40.2079V30.685H5.34125V40.2079H6.84125ZM5.34125 40.2079C5.34125 44.1729 8.75312 47.3066 12.8593 47.3066V45.8066C9.4897 45.8066 6.84125 43.2555 6.84125 40.2079H5.34125ZM52.7177 27.5107C52.7177 37.5708 44.0089 45.8066 33.1635 45.8066V47.3066C44.7455 47.3066 54.2177 38.4881 54.2177 27.5107H52.7177ZM29.7795 7.71484C16.3285 7.71484 5.34125 17.9545 5.34125 30.685H6.84125C6.84125 18.8718 17.0651 9.21484 29.7795 9.21484V7.71484ZM67.7538 52.9052V43.3823H66.2538V52.9052H67.7538ZM39.9316 60.0038H60.2358V58.5038H39.9316V60.0038ZM66.2538 52.9052C66.2538 55.9527 63.6054 58.5038 60.2358 58.5038V60.0038C64.342 60.0038 67.7538 56.8701 67.7538 52.9052H66.2538ZM52.6223 23.7528C60.6758 27.1034 66.2538 34.649 66.2538 43.3823H67.7538C67.7538 33.9791 61.7497 25.9256 53.1985 22.3679L52.6223 23.7528ZM33.1635 9.21484C42.4228 9.21484 50.1373 15.2269 52.1837 23.2458L53.6371 22.8749C51.4105 14.1498 43.0642 7.71484 33.1635 7.71484V9.21484ZM52.1837 23.2458C52.5328 24.6136 52.7177 26.0415 52.7177 27.5107H54.2177C54.2177 25.915 54.0168 24.3625 53.6371 22.8749L52.1837 23.2458ZM20.0809 46.821C22.9832 54.5236 30.793 60.0038 39.9316 60.0038V58.5038C31.389 58.5038 24.1569 53.3842 21.4846 46.2921L20.0809 46.821ZM33.1635 45.8066H20.7827V47.3066H33.1635V45.8066ZM20.7827 45.8066H12.8593V47.3066H20.7827V45.8066Z" fill="white"/>
</svg>
